<svg width="50" height="34" viewBox="0 0 50 34" fill="none" xmlns="http://www.w3.org/2000/svg">
<path d="M24.8667 29.4C24.8667 28.0583 25.9437 26.9833 27.2875 26.9833C28.6292 26.9833 29.7042 28.0583 29.7042 29.4C29.7053 29.7178 29.6435 30.0326 29.5225 30.3264C29.4015 30.6203 29.2235 30.8872 28.9989 31.112C28.7743 31.3368 28.5075 31.515 28.2138 31.6363C27.9201 31.7576 27.6053 31.8196 27.2875 31.8188C26.9696 31.8201 26.6545 31.7586 26.3604 31.6377C26.0664 31.5168 25.7991 31.3389 25.5741 31.1143C25.3491 30.8896 25.1708 30.6227 25.0493 30.3289C24.9279 30.035 24.8658 29.72 24.8667 29.4021V29.4ZM34.7083 29.4021C34.7083 28.0583 35.7854 26.9813 37.1271 26.9813C38.4687 26.9813 39.5458 28.0583 39.5458 29.4C39.5458 30.7417 38.4688 31.8188 37.1292 31.8188C36.8112 31.8201 36.4962 31.7586 36.2021 31.6377C35.908 31.5168 35.6408 31.3389 35.4158 31.1143C35.1908 30.8896 35.0124 30.6227 34.891 30.3289C34.7696 30.035 34.7075 29.72 34.7083 29.4021ZM11.8958 29.4021C11.8958 28.0583 12.9729 26.9813 14.3146 26.9813C15.6562 26.9813 16.7312 28.0583 16.7312 29.4C16.7312 30.7417 15.6562 31.8188 14.3146 31.8188C13.9968 31.8199 13.682 31.7581 13.3881 31.6371C13.0943 31.516 12.8273 31.3381 12.6026 31.1135C12.3778 30.8889 12.1996 30.6221 12.0783 30.3284C11.957 30.0347 11.895 29.7199 11.8958 29.4021ZM2.05417 29.4021C2.05417 28.0583 3.13125 26.9813 4.47292 26.9813C5.81458 26.9813 6.89167 28.0583 6.89167 29.4C6.89277 29.718 6.83096 30.033 6.70979 30.3269C6.58863 30.6209 6.41051 30.888 6.18569 31.1128C5.96087 31.3376 5.69379 31.5157 5.39983 31.6369C5.10588 31.7581 4.79086 31.8199 4.47292 31.8188C4.15532 31.8196 3.8407 31.7576 3.54712 31.6365C3.25355 31.5153 2.98681 31.3373 2.76224 31.1128C2.53766 30.8882 2.35969 30.6215 2.23853 30.3279C2.11737 30.0343 2.05543 29.7197 2.05625 29.4021H2.05417ZM21.9521 25.1271H19.8479V33.5917H21.9521V25.1271ZM6.875 33.5917H8.97917V25.1271H6.875V25.8063C6.14154 25.2958 5.2686 25.0237 4.375 25.0271C1.95417 25.0271 0 26.9813 0 29.4021C0 31.8354 1.95417 33.775 4.375 33.775C5.30208 33.775 6.1625 33.4938 6.875 32.9958V33.5917ZM39.5292 33.5917H41.6333V25.1271H39.5292V25.8063C38.7957 25.2958 37.9228 25.0237 37.0292 25.0271C34.6083 25.0271 32.6542 26.9813 32.6542 29.4021C32.6522 29.9771 32.7641 30.5467 32.9833 31.0783C33.2025 31.6098 33.5247 32.0928 33.9314 32.4992C34.3381 32.9057 34.8211 33.2277 35.3528 33.4467C35.8845 33.6656 36.4542 33.7772 37.0292 33.775C37.9562 33.775 38.8167 33.4938 39.5292 32.9958V33.5917ZM42.4125 30.8417C42.4792 32.55 43.9375 33.7583 46.3708 33.7583C48.3604 33.7583 50 32.8958 50 30.9917C50 29.6667 49.2542 28.8875 47.5312 28.5542L46.1896 28.2917C45.3271 28.125 44.7313 27.9583 44.7313 27.4458C44.7313 26.8833 45.3104 26.6333 46.0396 26.6333C47.1021 26.6333 47.5312 27.1646 47.5646 27.7938H49.6854C49.5687 26.1375 48.2437 25.0271 46.1063 25.0271C43.9042 25.0271 42.5937 26.2354 42.5937 27.8104C42.5937 29.7313 44.1521 30.0458 45.4937 30.2958L46.6042 30.4938C47.4 30.6438 47.7479 30.875 47.7479 31.3396C47.7479 31.7542 47.35 32.1667 46.4042 32.1667C45.0292 32.1667 44.5833 31.4542 44.5667 30.8417H42.4125ZM16.7167 22.2438V25.8063C15.9832 25.2958 15.1103 25.0237 14.2167 25.0271C11.7958 25.0271 9.84167 26.9813 9.84167 29.4021C9.84167 31.8354 11.7958 33.775 14.2167 33.775C15.1417 33.775 16.0042 33.4938 16.7167 32.9958V33.5917H18.8208V22.2438H16.7167ZM29.6875 22.2438V25.8063C28.954 25.2958 28.0811 25.0237 27.1875 25.0271C24.7687 25.0271 22.8125 26.9813 22.8125 29.4021C22.8106 29.9771 22.9224 30.5467 23.1416 31.0783C23.3608 31.6098 23.6831 32.0928 24.0897 32.4992C24.4964 32.9057 24.9795 33.2277 25.5111 33.4467C26.0428 33.6656 26.6125 33.7772 27.1875 33.775C28.1146 33.775 28.975 33.4938 29.6875 32.9958V33.5917H31.7917V22.2438H29.6875ZM5.46667 19.7438L6.89167 22.2438H16.7167L12.8229 15.5167L5.46875 19.7417L5.46667 19.7438ZM21.9521 24.3479V22.2438H29.6875L21.4375 7.96251L14.0646 12.1875L19.8479 22.2438V24.3479H21.9521ZM32.8208 22.2438H42.6604L29.9375 0.225006L22.5812 4.46667L32.8208 22.2438Z" fill="black"/>
</svg>
