<svg width="28" height="25" viewBox="0 0 28 25" fill="none" xmlns="http://www.w3.org/2000/svg">
<path d="M26.9 5.9625C26.7487 5.37036 26.5152 4.80233 26.2062 4.275C25.9095 3.72643 25.5301 3.22683 25.0812 2.79375C24.4306 2.14525 23.66 1.62943 22.8125 1.275C21.1065 0.574857 19.1935 0.574857 17.4875 1.275C16.6864 1.61407 15.9505 2.08992 15.3125 2.68125L15.2187 2.79375L14 4.0125L12.7812 2.79375L12.6875 2.68125C12.0495 2.08992 11.3136 1.61407 10.5125 1.275C8.80654 0.574857 6.89345 0.574857 5.1875 1.275C4.33996 1.62943 3.56942 2.14525 2.91875 2.79375C2.0288 3.65968 1.39882 4.75729 1.1 5.9625C0.941024 6.57454 0.865341 7.20523 0.874996 7.8375C0.874996 8.43188 0.949996 9.02438 1.1 9.6C1.25718 10.1813 1.48382 10.7416 1.775 11.2688C2.08946 11.8106 2.47403 12.3087 2.91875 12.75L14 23.8313L25.0812 12.75C25.5256 12.3131 25.9062 11.8125 26.2062 11.2688C26.8152 10.2283 27.1326 9.04303 27.125 7.8375C27.1347 7.20522 27.059 6.57453 26.9 5.9625ZM25.025 9.01875C24.8004 9.87547 24.3542 10.658 23.7312 11.2875L13.9625 21.0375L4.19375 11.2875C3.87541 10.9669 3.59828 10.6079 3.36875 10.2188C3.15276 9.83377 2.98284 9.42471 2.8625 9C2.76642 8.57535 2.71613 8.14162 2.7125 7.70625C2.71504 7.25843 2.76532 6.81216 2.8625 6.375C2.97931 5.94907 3.1494 5.53959 3.36875 5.15625C3.59375 4.7625 3.87125 4.40625 4.19375 4.0875C4.67543 3.61227 5.2413 3.23078 5.8625 2.9625C7.11427 2.46173 8.51072 2.46173 9.7625 2.9625C10.3812 3.21938 10.94 3.59625 11.4125 4.06875L13.9625 6.6375L16.5125 4.06875C16.9847 3.59541 17.5453 3.21953 18.1625 2.9625C19.4143 2.46173 20.8107 2.46173 22.0625 2.9625C22.6831 3.23063 23.2494 3.61313 23.7312 4.0875C24.0575 4.39688 24.3312 4.75688 24.5375 5.15625C24.9718 5.92212 25.198 6.78833 25.1937 7.66875C25.2193 8.12179 25.1814 8.57618 25.0812 9.01875H25.025Z" fill="black" stroke="black"/>
</svg>
