<svg width="33" height="33" viewBox="0 0 33 33" fill="none" xmlns="http://www.w3.org/2000/svg">
<path d="M16.5 31.4233C17.0774 31.41 17.6316 31.193 18.0644 30.8105C18.4972 30.428 18.7808 29.9048 18.865 29.3333H14.0433C14.1299 29.9203 14.4268 30.4558 14.8787 30.8403C15.3306 31.2247 15.9068 31.4319 16.5 31.4233Z" fill="black"/>
<path d="M29.8008 25.5108C28.9169 24.7228 28.143 23.8194 27.5 22.825C26.798 21.4523 26.3773 19.9533 26.2625 18.4158V13.8875C26.2588 13.3374 26.2097 12.7886 26.1158 12.2467C25.3943 12.1024 24.7009 11.8424 24.0625 11.4767C24.3059 12.2603 24.4295 13.0761 24.4292 13.8967V18.425C24.5415 20.3005 25.0574 22.1297 25.9417 23.7875C26.5745 24.7903 27.3255 25.7136 28.1783 26.5375H4.7025C5.55538 25.7136 6.3063 24.7903 6.93917 23.7875C7.8234 22.1297 8.33932 20.3005 8.45167 18.425V13.8875C8.44685 12.8266 8.65133 11.7752 9.05341 10.7935C9.45549 9.81175 10.0473 8.91897 10.7949 8.16627C11.5425 7.41356 12.4312 6.81571 13.4102 6.40695C14.3891 5.9982 15.4391 5.78656 16.5 5.78416C18.0526 5.7854 19.5704 6.24456 20.8633 7.10416C20.7208 6.58073 20.6408 6.04225 20.625 5.49999V4.92249C19.6679 4.45165 18.6396 4.14194 17.5817 4.00582V2.85083C17.5817 2.52627 17.4527 2.215 17.2232 1.9855C16.9937 1.75601 16.6825 1.62708 16.3579 1.62708C16.0334 1.62708 15.7221 1.75601 15.4926 1.9855C15.2631 2.215 15.1342 2.52627 15.1342 2.85083V4.05166C12.7652 4.38583 10.5972 5.56576 9.03029 7.3736C7.46338 9.18144 6.60342 11.4951 6.60917 13.8875V18.4158C6.49436 19.9533 6.07363 21.4523 5.37167 22.825C4.73998 23.8171 3.97852 24.7204 3.1075 25.5108C3.00972 25.5967 2.93136 25.7025 2.87762 25.821C2.82388 25.9395 2.796 26.0682 2.79584 26.1983V27.445C2.79584 27.6881 2.89241 27.9213 3.06432 28.0932C3.23623 28.2651 3.46939 28.3617 3.7125 28.3617H29.1958C29.439 28.3617 29.6721 28.2651 29.844 28.0932C30.0159 27.9213 30.1125 27.6881 30.1125 27.445V26.1983C30.1123 26.0682 30.0845 25.9395 30.0307 25.821C29.977 25.7025 29.8986 25.5967 29.8008 25.5108Z" fill="black"/>
<path d="M27.5 10.0833C30.0313 10.0833 32.0833 8.03129 32.0833 5.49999C32.0833 2.96868 30.0313 0.916656 27.5 0.916656C24.9687 0.916656 22.9167 2.96868 22.9167 5.49999C22.9167 8.03129 24.9687 10.0833 27.5 10.0833Z" fill="black"/>
</svg>
