<svg width="28" height="28" viewBox="0 0 28 28" fill="none" xmlns="http://www.w3.org/2000/svg">
<path d="M8.16667 22.1667C9.45533 22.1667 10.5 21.122 10.5 19.8333C10.5 18.5447 9.45533 17.5 8.16667 17.5C6.878 17.5 5.83333 18.5447 5.83333 19.8333C5.83333 21.122 6.878 22.1667 8.16667 22.1667Z" stroke="black" stroke-width="2" stroke-linecap="round" stroke-linejoin="round"/>
<path d="M19.8333 22.1667C21.122 22.1667 22.1667 21.122 22.1667 19.8333C22.1667 18.5447 21.122 17.5 19.8333 17.5C18.5447 17.5 17.5 18.5447 17.5 19.8333C17.5 21.122 18.5447 22.1667 19.8333 22.1667Z" stroke="black" stroke-width="2" stroke-linecap="round" stroke-linejoin="round"/>
<path d="M15.1667 6.99999H21L24.5 12.8333M5.83333 19.8333H3.5V15.1667L5.83333 19.8333ZM2.33333 5.83333H15.1667V19.8333L2.33333 5.83333ZM10.5 19.8333H17.5H10.5ZM22.1667 19.8333H24.5V12.8333H15.1667L22.1667 19.8333Z" stroke="black" stroke-width="2" stroke-linecap="round" stroke-linejoin="round"/>
<path d="M3.5 10.5H8.16667" stroke="black" stroke-width="2" stroke-linecap="round" stroke-linejoin="round"/>
</svg>
